<svg width="400" height="186" viewBox="0 0 400 186" fill="none" xmlns="http://www.w3.org/2000/svg">
<rect width="400" height="186" fill="#FED154"/>
<path d="M71.3466 80.392V75.0909H99.1989V80.392H88.4091V110H82.1364V80.392H71.3466ZM131.119 110.511C128.562 110.511 126.346 109.949 124.471 108.824C122.596 107.699 121.142 106.125 120.108 104.102C119.085 102.08 118.574 99.7159 118.574 97.0114C118.574 94.3068 119.085 91.9375 120.108 89.9034C121.142 87.8693 122.596 86.2898 124.471 85.1648C126.346 84.0398 128.562 83.4773 131.119 83.4773C133.676 83.4773 135.892 84.0398 137.767 85.1648C139.642 86.2898 141.091 87.8693 142.113 89.9034C143.147 91.9375 143.664 94.3068 143.664 97.0114C143.664 99.7159 143.147 102.08 142.113 104.102C141.091 106.125 139.642 107.699 137.767 108.824C135.892 109.949 133.676 110.511 131.119 110.511ZM131.153 105.568C132.539 105.568 133.699 105.187 134.63 104.426C135.562 103.653 136.255 102.619 136.71 101.324C137.176 100.028 137.409 98.5852 137.409 96.9943C137.409 95.392 137.176 93.9432 136.71 92.6477C136.255 91.3409 135.562 90.3011 134.63 89.5284C133.699 88.7557 132.539 88.3693 131.153 88.3693C129.733 88.3693 128.551 88.7557 127.608 89.5284C126.676 90.3011 125.977 91.3409 125.511 92.6477C125.057 93.9432 124.829 95.392 124.829 96.9943C124.829 98.5852 125.057 100.028 125.511 101.324C125.977 102.619 126.676 103.653 127.608 104.426C128.551 105.187 129.733 105.568 131.153 105.568ZM173.727 101.784L173.71 94.3352H174.698L184.107 83.8182H191.318L179.744 96.7045H178.465L173.727 101.784ZM168.102 110V75.0909H174.272V110H168.102ZM184.534 110L176.011 98.0852L180.17 93.7386L191.914 110H184.534ZM210.65 80.392V75.0909H238.502V80.392H227.712V110H221.439V80.392H210.65ZM270.422 110.511C267.865 110.511 265.649 109.949 263.774 108.824C261.899 107.699 260.445 106.125 259.411 104.102C258.388 102.08 257.877 99.7159 257.877 97.0114C257.877 94.3068 258.388 91.9375 259.411 89.9034C260.445 87.8693 261.899 86.2898 263.774 85.1648C265.649 84.0398 267.865 83.4773 270.422 83.4773C272.979 83.4773 275.195 84.0398 277.07 85.1648C278.945 86.2898 280.394 87.8693 281.416 89.9034C282.451 91.9375 282.968 94.3068 282.968 97.0114C282.968 99.7159 282.451 102.08 281.416 104.102C280.394 106.125 278.945 107.699 277.07 108.824C275.195 109.949 272.979 110.511 270.422 110.511ZM270.456 105.568C271.843 105.568 273.002 105.187 273.934 104.426C274.865 103.653 275.559 102.619 276.013 101.324C276.479 100.028 276.712 98.5852 276.712 96.9943C276.712 95.392 276.479 93.9432 276.013 92.6477C275.559 91.3409 274.865 90.3011 273.934 89.5284C273.002 88.7557 271.843 88.3693 270.456 88.3693C269.036 88.3693 267.854 88.7557 266.911 89.5284C265.979 90.3011 265.28 91.3409 264.814 92.6477C264.36 93.9432 264.132 95.392 264.132 96.9943C264.132 98.5852 264.36 100.028 264.814 101.324C265.28 102.619 265.979 103.653 266.911 104.426C267.854 105.187 269.036 105.568 270.456 105.568ZM313.03 101.784L313.013 94.3352H314.001L323.411 83.8182H330.621L319.047 96.7045H317.768L313.03 101.784ZM307.405 110V75.0909H313.575V110H307.405ZM323.837 110L315.314 98.0852L319.473 93.7386L331.217 110H323.837Z" fill="#1E2329"/>
</svg>
