<svg width="400" height="400" viewBox="0 0 400 400" fill="none" xmlns="http://www.w3.org/2000/svg">
<rect width="400" height="400" fill="#FED154"/>
<path d="M71.3466 187.392V182.091H99.1989V187.392H88.4091V217H82.1364V187.392H71.3466ZM131.119 217.511C128.562 217.511 126.346 216.949 124.471 215.824C122.596 214.699 121.142 213.125 120.108 211.102C119.085 209.08 118.574 206.716 118.574 204.011C118.574 201.307 119.085 198.937 120.108 196.903C121.142 194.869 122.596 193.29 124.471 192.165C126.346 191.04 128.562 190.477 131.119 190.477C133.676 190.477 135.892 191.04 137.767 192.165C139.642 193.29 141.091 194.869 142.113 196.903C143.147 198.937 143.664 201.307 143.664 204.011C143.664 206.716 143.147 209.08 142.113 211.102C141.091 213.125 139.642 214.699 137.767 215.824C135.892 216.949 133.676 217.511 131.119 217.511ZM131.153 212.568C132.539 212.568 133.699 212.187 134.63 211.426C135.562 210.653 136.255 209.619 136.71 208.324C137.176 207.028 137.409 205.585 137.409 203.994C137.409 202.392 137.176 200.943 136.71 199.648C136.255 198.341 135.562 197.301 134.63 196.528C133.699 195.756 132.539 195.369 131.153 195.369C129.733 195.369 128.551 195.756 127.608 196.528C126.676 197.301 125.977 198.341 125.511 199.648C125.057 200.943 124.829 202.392 124.829 203.994C124.829 205.585 125.057 207.028 125.511 208.324C125.977 209.619 126.676 210.653 127.608 211.426C128.551 212.187 129.733 212.568 131.153 212.568ZM173.727 208.784L173.71 201.335H174.698L184.107 190.818H191.318L179.744 203.705H178.465L173.727 208.784ZM168.102 217V182.091H174.272V217H168.102ZM184.534 217L176.011 205.085L180.17 200.739L191.914 217H184.534ZM210.65 187.392V182.091H238.502V187.392H227.712V217H221.439V187.392H210.65ZM270.422 217.511C267.865 217.511 265.649 216.949 263.774 215.824C261.899 214.699 260.445 213.125 259.411 211.102C258.388 209.08 257.877 206.716 257.877 204.011C257.877 201.307 258.388 198.937 259.411 196.903C260.445 194.869 261.899 193.29 263.774 192.165C265.649 191.04 267.865 190.477 270.422 190.477C272.979 190.477 275.195 191.04 277.07 192.165C278.945 193.29 280.394 194.869 281.416 196.903C282.451 198.937 282.968 201.307 282.968 204.011C282.968 206.716 282.451 209.08 281.416 211.102C280.394 213.125 278.945 214.699 277.07 215.824C275.195 216.949 272.979 217.511 270.422 217.511ZM270.456 212.568C271.843 212.568 273.002 212.187 273.934 211.426C274.865 210.653 275.559 209.619 276.013 208.324C276.479 207.028 276.712 205.585 276.712 203.994C276.712 202.392 276.479 200.943 276.013 199.648C275.559 198.341 274.865 197.301 273.934 196.528C273.002 195.756 271.843 195.369 270.456 195.369C269.036 195.369 267.854 195.756 266.911 196.528C265.979 197.301 265.28 198.341 264.814 199.648C264.36 200.943 264.132 202.392 264.132 203.994C264.132 205.585 264.36 207.028 264.814 208.324C265.28 209.619 265.979 210.653 266.911 211.426C267.854 212.187 269.036 212.568 270.456 212.568ZM313.03 208.784L313.013 201.335H314.001L323.411 190.818H330.621L319.047 203.705H317.768L313.03 208.784ZM307.405 217V182.091H313.575V217H307.405ZM323.837 217L315.314 205.085L319.473 200.739L331.217 217H323.837Z" fill="#1E2329"/>
</svg>
